<svg width="100" height="72" viewBox="0 0 100 72" fill="none" xmlns="http://www.w3.org/2000/svg">
<g clip-path="url(#clip0_16_193)">
<path d="M27.5279 71.7763C25.0108 71.373 20.8374 69.2825 18.6495 67.329C13.5548 62.78 10.4924 58.0468 8.33267 51.3835C7.75268 49.5941 7.12368 48.0221 6.93489 47.8902C6.7461 47.7584 5.39791 47.6483 3.93891 47.6455C0.837173 47.6397 0 47.1224 0 45.2117C0 43.8084 0.588968 43.3615 3.92304 42.2347L6.43087 41.3871V39.5291C6.43087 36.7897 6.94996 32.7163 7.94527 27.6451C8.9534 22.5087 8.90297 22.259 6.72291 21.5918C5.94332 21.3532 4.55741 20.933 3.64311 20.658C1.66877 20.0642 0.438692 18.8646 0.193729 17.2942C-0.0961521 15.4358 0.598683 14.0269 2.2508 13.1232C3.65959 12.3526 3.83479 12.3365 8.89474 12.5159L14.0917 12.7001L16.9333 9.74706C19.8045 6.76327 23.1836 4.24521 27.0096 2.23835L29.0997 1.14207H34.4051H39.7106L41.9272 2.20732C45.6305 3.98714 51.4406 8.58042 51.4525 9.73781C51.4556 10.0352 51.8012 10.6087 52.2207 11.0122C53.1786 11.9336 54.25 14.2218 54.6831 16.2709C54.9446 17.5084 54.9138 18.1164 54.5388 19.1192C54.2766 19.8204 53.5476 21.8624 52.9187 23.6571C51.7903 26.8775 51.7374 26.9566 48.8698 29.7115L45.9643 32.5028L47.5802 34.5461C48.469 35.6699 49.1961 36.7265 49.1961 36.8941C49.1961 37.4575 49.3527 37.6845 50.3612 38.5831C50.9136 39.0753 51.7691 40.3234 52.2622 41.3567C52.7554 42.39 53.3075 43.5291 53.4892 43.888C54.7098 46.2991 55.0145 47.1964 55.2835 49.1716C55.6354 51.7561 55.3004 55.4027 54.5436 57.2255C52.3611 62.482 44.6703 69.3358 38.9068 71.1604C36.4756 71.9301 30.5045 72.2533 27.5279 71.7763ZM29.582 67.8442C29.582 67.049 28.8306 67.1614 28.6742 67.98C28.6126 68.302 28.7767 68.524 29.0761 68.524C29.3744 68.524 29.582 68.245 29.582 67.8442ZM35.0482 67.4012C35.0482 67.3221 34.9035 67.1666 34.7267 67.0557C34.5498 66.9447 34.4051 67.0095 34.4051 67.1996C34.4051 67.3896 34.5498 67.5451 34.7267 67.5451C34.9035 67.5451 35.0482 67.4804 35.0482 67.4012ZM37.6206 65.4434C37.6206 65.3642 37.4759 65.2087 37.299 65.0978C37.1222 64.9869 36.9775 65.0517 36.9775 65.2417C36.9775 65.4318 37.1222 65.5873 37.299 65.5873C37.4759 65.5873 37.6206 65.5225 37.6206 65.4434ZM42.5588 62.5842C44.5039 61.9417 45.0063 61.5903 46.8181 59.6044C49.8502 56.2809 50.465 53.681 49.2009 49.5276C48.3207 46.6356 46.3819 43.7167 43.2552 40.5762C40.0657 37.3727 38.9856 36.7256 37.5315 37.1469C36.62 37.4111 23.9014 41.9933 22.4277 42.5885C21.9647 42.7755 21.865 43.2316 21.865 45.1629C21.865 46.4538 22.0078 47.655 22.1824 47.8321C22.357 48.0093 22.8592 49.2266 23.2985 50.5373C24.4969 54.113 27.9349 58.7079 31.031 60.8718C34.5945 63.3624 38.4631 63.9371 42.5588 62.5842ZM27.9743 60.8751C27.9743 60.796 27.8296 60.6405 27.6527 60.5296C27.4759 60.4186 27.3312 60.4834 27.3312 60.6735C27.3312 60.8635 27.4759 61.019 27.6527 61.019C27.8296 61.019 27.9743 60.9543 27.9743 60.8751ZM17.6849 58.0551C17.6849 57.2599 16.9335 57.3723 16.7771 58.1909C16.7155 58.5129 16.8796 58.7349 17.179 58.7349C17.4773 58.7349 17.6849 58.4559 17.6849 58.0551ZM53.6977 57.2858C53.6977 57.2066 53.5531 57.0511 53.3762 56.9402C53.1994 56.8293 53.0547 56.894 53.0547 57.0841C53.0547 57.2742 53.1994 57.4297 53.3762 57.4297C53.5531 57.4297 53.6977 57.3649 53.6977 57.2858ZM13.1833 55.6542C13.1833 55.5751 13.0386 55.4196 12.8617 55.3087C12.6849 55.1978 12.5402 55.2625 12.5402 55.4526C12.5402 55.6426 12.6849 55.7981 12.8617 55.7981C13.0386 55.7981 13.1833 55.7334 13.1833 55.6542ZM9.6463 49.4545C9.6463 49.3753 9.50161 49.2198 9.32476 49.1089C9.14791 48.998 9.00321 49.0627 9.00321 49.2528C9.00321 49.4428 9.14791 49.5984 9.32476 49.5984C9.50161 49.5984 9.6463 49.5336 9.6463 49.4545ZM20.5788 48.2659C20.5788 47.4707 19.8274 47.5831 19.671 48.4017C19.6094 48.7237 19.7735 48.9457 20.0729 48.9457C20.3712 48.9457 20.5788 48.6668 20.5788 48.2659ZM19.1846 44.5187C19.4526 43.81 18.7723 43.1435 18.2853 43.6377C17.8737 44.0553 18.1287 45.0301 18.6495 45.0301C18.8375 45.0301 19.0783 44.8 19.1846 44.5187ZM10.9325 39.4557C10.9325 38.6605 10.1811 38.7729 10.0247 39.5915C9.96312 39.9135 10.1271 40.1355 10.4266 40.1355C10.7249 40.1355 10.9325 39.8565 10.9325 39.4557ZM29.9035 37.3812C29.9035 37.302 29.7588 37.1465 29.582 37.0356C29.4051 36.9247 29.2604 36.9894 29.2604 37.1795C29.2604 37.3696 29.4051 37.5251 29.582 37.5251C29.7588 37.5251 29.9035 37.4603 29.9035 37.3812ZM31.5113 36.7286C31.5113 36.6494 31.3666 36.4939 31.1897 36.383C31.0129 36.2721 30.8682 36.3368 30.8682 36.5269C30.8682 36.717 31.0129 36.8725 31.1897 36.8725C31.3666 36.8725 31.5113 36.8077 31.5113 36.7286ZM26.1977 34.0959C31.1961 31.7617 31.2687 31.6829 29.5174 30.4976C27.3909 29.0583 24.7181 27.7359 23.9355 27.7359C23.5474 27.7359 23.0689 27.9327 22.8722 28.1732C22.5435 28.5752 21.2219 34.3943 21.2219 35.44C21.2219 36.2214 22.2279 35.9497 26.1977 34.0959ZM44.6945 35.4233C44.6945 35.3442 44.5498 35.1887 44.373 35.0778C44.1961 34.9669 44.0514 35.0316 44.0514 35.2217C44.0514 35.4117 44.1961 35.5672 44.373 35.5672C44.5498 35.5672 44.6945 35.5025 44.6945 35.4233ZM38.5852 34.2348C38.5852 33.4396 37.8338 33.552 37.6774 34.3706C37.6159 34.6926 37.7799 34.9146 38.0793 34.9146C38.3776 34.9146 38.5852 34.6356 38.5852 34.2348ZM18.9711 32.9296C18.9711 32.1344 18.2197 32.2468 18.0632 33.0654C18.0017 33.3874 18.1657 33.6094 18.4652 33.6094C18.7634 33.6094 18.9711 33.3304 18.9711 32.9296ZM9.96785 32.1603C9.96785 32.0811 9.82315 31.9256 9.6463 31.8147C9.46945 31.7038 9.32476 31.7686 9.32476 31.9586C9.32476 32.1487 9.46945 32.3042 9.6463 32.3042C9.82315 32.3042 9.96785 32.2394 9.96785 32.1603ZM40.5266 26.2527C40.7535 25.9753 41.1329 25.8239 41.3698 25.9162C41.6068 26.0084 41.8006 25.9473 41.8006 25.7804C41.8006 25.6135 43.0971 24.0769 44.6817 22.3658C46.9989 19.8635 47.6596 18.9235 48.0579 17.5626C48.3302 16.6319 48.5499 15.4933 48.546 15.0324C48.533 13.4925 47.3846 11.5089 45.9478 10.5449C44.6857 9.69807 44.337 9.62599 41.5014 9.62599C38.6016 9.62599 38.277 9.69742 35.8634 10.8669C33.7874 11.8727 32.763 12.6618 30.4551 15.0331C28.6496 16.8881 27.647 18.1653 27.715 18.5236C27.774 18.8343 29.1444 19.9044 30.7603 20.9016C34.5327 23.2294 36.0129 24.3838 36.0129 24.9982C36.0129 25.2689 36.1344 25.4141 36.283 25.3209C36.4315 25.2277 37.1912 25.5062 37.9711 25.9398C39.6576 26.8773 39.9832 26.9172 40.5266 26.2527ZM45.9807 25.9605C45.9807 25.8814 45.836 25.7259 45.6592 25.6149C45.4823 25.504 45.3376 25.5688 45.3376 25.7588C45.3376 25.9489 45.4823 26.1044 45.6592 26.1044C45.836 26.1044 45.9807 26.0396 45.9807 25.9605ZM13.6512 23.8662C13.8941 23.0896 13.5565 22.1887 13.0225 22.1887C12.7951 22.1887 12.5179 22.4297 12.4065 22.7242C12.1296 23.4566 12.4875 24.4729 13.0225 24.4729C13.2639 24.4729 13.5469 24.1999 13.6512 23.8662ZM48.5531 20.4133C48.5531 20.3342 48.4084 20.1787 48.2315 20.0678C48.0547 19.9568 47.91 20.0216 47.91 20.2116C47.91 20.4017 48.0547 20.5572 48.2315 20.5572C48.4084 20.5572 48.5531 20.4925 48.5531 20.4133ZM24.9724 15.4776C25.2404 14.7688 24.56 14.1023 24.0731 14.5965C23.6615 15.0142 23.9165 15.9889 24.4373 15.9889C24.6252 15.9889 24.866 15.7588 24.9724 15.4776ZM6.43087 14.6565C6.43087 13.8613 5.67949 13.9737 5.52305 14.7923C5.46151 15.1143 5.62554 15.3363 5.92497 15.3363C6.22325 15.3363 6.43087 15.0573 6.43087 14.6565ZM18.328 12.2557C18.328 12.1765 18.1833 12.021 18.0064 11.9101C17.8296 11.7992 17.6849 11.864 17.6849 12.054C17.6849 12.2441 17.8296 12.3996 18.0064 12.3996C18.1833 12.3996 18.328 12.3348 18.328 12.2557ZM32.4759 6.1726C32.4759 5.37738 31.7245 5.48978 31.5681 6.30841C31.5065 6.63039 31.6706 6.8524 31.97 6.8524C32.2683 6.8524 32.4759 6.57341 32.4759 6.1726ZM40.836 3.77176C40.836 3.69262 40.6913 3.53712 40.5145 3.4262C40.3376 3.31528 40.1929 3.38004 40.1929 3.5701C40.1929 3.76016 40.3376 3.91566 40.5145 3.91566C40.6913 3.91566 40.836 3.85091 40.836 3.77176ZM87.2391 64.7739C86.8622 64.5059 86.1517 63.2466 85.6602 61.9754C84.5712 59.1586 82.6932 57.3006 79.8119 56.1896C77.6761 55.366 77.3245 55.0662 77.012 53.8028C76.7158 52.6053 77.8049 51.5319 80.4151 50.4486C83.0854 49.3403 84.6432 47.7443 85.6834 45.0506C86.6553 42.5338 87.2903 41.767 88.4027 41.767C89.7573 41.767 90.4971 42.5479 91.4311 44.9638C92.5295 47.805 93.9594 49.2843 96.7345 50.4503C99.691 51.6927 100.051 52.054 99.935 53.6603L99.8392 54.9824L96.702 56.5245C93.9844 57.8603 93.4375 58.2703 92.6127 59.5901C92.089 60.428 91.4273 61.8265 91.1421 62.6977C90.3712 65.053 88.8044 65.8865 87.2391 64.7739ZM91.3465 52.4617C90.712 51.9727 89.8438 51.0869 89.417 50.4933L88.6411 49.414L86.614 51.5223C84.5944 53.6228 84.5895 53.6325 85.2999 54.1237C85.692 54.3948 86.5669 55.2332 87.2441 55.9866L88.4754 57.3564L90.4877 55.3537L92.5001 53.3509L91.3465 52.4617ZM65.6963 53.5188C64.8519 53.1651 64.584 52.6848 63.3746 49.3562C61.7151 44.7886 61.0261 43.6453 57.886 40.2487C55.2482 37.3955 54.0405 35.8884 51.4569 32.2258C51.0154 31.5999 51.0783 31.4809 52.4215 30.4018C54.3092 28.8853 59.5947 23.3571 60.7421 21.6993C61.2389 20.9814 62.1715 18.9991 62.8146 17.2942C64.5789 12.6165 64.9591 11.9746 66.1733 11.6237C67.9554 11.1086 68.7388 12.0086 70.4275 16.5109C73.1705 23.8238 75.6321 26.249 83.2746 29.1678C86.8632 30.5383 87.4598 31.0319 87.4598 32.6305C87.4598 34.2224 86.8616 34.7225 83.3913 36.0318C79.2197 37.6057 77.2689 38.6988 75.3573 40.5335C73.0493 42.7486 71.954 44.5802 70.4125 48.8017C69.6955 50.7653 68.8608 52.6196 68.5576 52.9224C67.8485 53.6306 66.5896 53.893 65.6963 53.5188ZM71.7218 38.2275C73.7908 36.0944 77.2966 33.6452 79.0193 33.1294C79.4172 33.0103 79.7427 32.8126 79.7427 32.6901C79.7426 32.5676 78.766 31.9897 77.5723 31.406C73.3313 29.3321 69.8281 25.72 67.7744 21.3036L66.8317 19.2765L65.5775 21.8194C64.8414 23.3119 63.4901 25.2856 62.3063 26.5975C60.2861 28.8363 56.389 31.7131 54.8429 32.1069C54.3899 32.2222 54.0193 32.4579 54.0193 32.6305C54.0193 32.8031 54.3899 33.0388 54.8429 33.1541C56.3438 33.5364 60.2599 36.4045 62.2722 38.5952C63.5066 39.939 64.7204 41.7184 65.4877 43.3089L66.7203 45.8639L68.1017 43.1998C69.0211 41.4267 70.2318 39.7638 71.7218 38.2275ZM87.2472 23.0126C86.8747 22.7478 86.1802 21.5364 85.7039 20.3205C84.5617 17.4052 83.347 16.1685 80.1418 14.6576C77.2976 13.3168 76.597 12.4617 77.1449 10.9994C77.5127 10.0175 77.8843 9.75725 80.4735 8.66788C83.1319 7.54935 84.8157 5.74947 85.821 2.95147C86.543 0.94199 87.4252 0 88.5852 0C89.7538 0 90.5346 0.878006 91.4332 3.20233C92.5237 6.02278 94.2329 7.82604 96.7341 8.79483C99.5842 9.89871 100 10.2691 100 11.7039C100 13.2232 99.5873 13.6117 96.6707 14.8382C93.8923 16.0065 92.5495 17.4044 91.4341 20.2893C90.2542 23.3413 88.9255 24.2055 87.2472 23.0126ZM91.7465 12.426C92.6188 11.9553 92.8893 11.4207 92.2552 11.4207C92.0631 11.4207 91.1536 10.6262 90.2343 9.65516L88.5626 7.88965L86.5625 9.85148L84.5623 11.8133L85.4025 12.484C86.4618 13.3296 87.3906 14.3145 88.0063 15.2448C88.4842 15.9671 88.4889 15.9648 89.6871 14.4291C90.3479 13.5821 91.2747 12.6807 91.7465 12.426Z" fill="url(#paint0_radial_16_193)"/>
</g>
<defs>
<radialGradient id="paint0_radial_16_193" cx="0" cy="0" r="1" gradientTransform="matrix(-1.32636 63.7518 -70.9684 -1.52055 53.0547 38.9119)" gradientUnits="userSpaceOnUse">
<stop stop-color="#D6E4F3"/>
<stop offset="1" stop-color="#FFFDFD"/>
</radialGradient>
<clipPath id="clip0_16_193">
<rect width="100" height="72" fill="white"/>
</clipPath>
</defs>
</svg>
