<svg width="400" height="400" viewBox="0 0 400 400" fill="none" xmlns="http://www.w3.org/2000/svg">
<rect width="400" height="400" fill="#ECECEC"/>
<path d="M316.472 290.253C313.907 289.069 313.075 287.853 311.085 282.376C308.612 275.572 307.385 273.402 304.172 270.144C301.135 267.065 298.713 265.696 292.079 263.306C289.671 262.439 287.07 261.263 286.3 260.692C283.748 258.804 282.677 254.995 283.896 252.144C284.928 249.733 286.697 248.551 292.405 246.458C298.99 244.043 301.174 242.807 304.2 239.781C307.228 236.753 308.518 234.475 310.911 227.932C312.984 222.264 314.16 220.506 316.563 219.478C319.549 218.2 323.811 219.4 325.395 221.964C325.848 222.697 327.068 225.605 328.106 228.427C329.144 231.249 330.409 234.248 330.918 235.092C334.088 240.345 338.269 243.466 345.785 246.19C348.605 247.213 351.547 248.441 352.323 248.92C354.961 250.551 356.18 254.774 354.885 257.8C353.873 260.168 352.158 261.308 346.385 263.453C339.731 265.925 336.854 267.592 334.143 270.545C331.336 273.603 330.221 275.644 327.904 281.964C325.707 287.956 324.41 289.758 321.715 290.566C319.536 291.219 318.42 291.152 316.472 290.253ZM321.402 265.084C323.68 261.921 326.916 258.743 330.112 256.531L332.493 254.883L330.32 253.477C327.481 251.638 322.618 246.786 320.868 244.045L319.482 241.874L317.512 244.67C315.339 247.754 312.209 250.865 308.859 253.272C307.657 254.136 306.673 254.893 306.673 254.956C306.673 255.019 307.47 255.595 308.445 256.237C311.021 257.933 315.671 262.524 317.617 265.293C318.545 266.611 319.353 267.69 319.415 267.69C319.476 267.69 320.37 266.518 321.402 265.084ZM247.597 254.546C246.639 253.972 245.479 252.894 245.019 252.149C244.559 251.405 242.837 247.045 241.192 242.46C239.548 237.875 237.56 232.728 236.777 231.022C233.134 223.096 226.039 214.82 218.678 209.913C213.765 206.638 210.761 205.269 200.002 201.398C195.342 199.721 190.946 197.955 190.234 197.472C188.43 196.251 187 193.373 187 190.966C187 188.559 188.43 185.681 190.234 184.46C190.946 183.977 195.342 182.211 200.002 180.534C204.662 178.858 209.876 176.852 211.589 176.077C221.891 171.416 231.802 161.576 236.616 151.23C237.492 149.348 239.556 144.056 241.203 139.469C242.85 134.882 244.573 130.518 245.032 129.771C246.899 126.73 251.819 125.395 255.215 127.006C257.91 128.285 258.796 129.869 262.435 139.908C264.342 145.171 266.465 150.603 267.153 151.979C272.048 161.779 280.886 170.58 290.825 175.549C292.314 176.294 297.819 178.453 303.058 180.348C312.769 183.859 314.346 184.721 315.62 187.213C317.169 190.246 316.478 194.373 314.024 196.752C312.875 197.865 310.7 198.821 302.915 201.636C297.591 203.562 291.576 206.011 289.548 207.08C282.029 211.045 275.183 217.194 270.644 224.06C267.385 228.992 266.292 231.381 262.435 242.025C258.796 252.063 257.91 253.647 255.215 254.926C253.033 255.961 249.679 255.794 247.597 254.546ZM255.497 223.679C256.54 221.604 258.574 218.133 260.017 215.965C263.377 210.919 271.337 202.918 276.46 199.438C280.294 196.833 286.926 193.324 290.515 192C291.604 191.598 292.496 191.145 292.496 190.992C292.496 190.838 290.948 190.084 289.056 189.316C272.62 182.638 259.336 169.097 252.886 152.444L251.774 149.574L250.799 152.027C243.787 169.667 230.28 183.283 213.374 189.756C211.941 190.304 210.768 190.852 210.768 190.972C210.768 191.092 212.134 191.712 213.803 192.349C224.524 196.442 235.745 205.182 242.561 214.748C245.396 218.727 249.018 225.385 250.8 229.893L251.764 232.335L252.683 229.893C253.188 228.551 254.455 225.754 255.497 223.679ZM316.472 162.438C314.146 161.399 312.959 159.598 310.911 154.001C308.518 147.457 307.228 145.179 304.2 142.151C301.174 139.125 298.99 137.889 292.405 135.475C286.697 133.382 284.928 132.2 283.896 129.788C282.677 126.937 283.747 123.129 286.3 121.24C287.07 120.67 289.671 119.494 292.079 118.626C298.232 116.41 300.811 115.024 303.612 112.429C306.753 109.519 308.674 106.218 311.095 99.5723C312.638 95.3354 313.342 93.9498 314.441 92.9848C316.474 91.1998 318.772 90.6101 321.199 91.2509C324.362 92.0858 325.606 93.7011 327.896 99.9466C330.363 106.677 331.556 108.755 334.788 111.952C337.819 114.951 340.083 116.214 346.801 118.656C352.131 120.593 353.877 121.776 354.885 124.132C356.267 127.36 354.945 131.475 351.979 133.179C351.027 133.727 348.277 134.87 345.869 135.72C340.246 137.704 337.531 139.259 334.635 142.155C331.629 145.161 330.364 147.365 328.08 153.576C327.056 156.359 325.848 159.236 325.395 159.969C323.812 162.53 319.409 163.749 316.472 162.438ZM322.174 136.149C324.306 133.298 327.469 130.34 330.529 128.336L332.493 127.049L330.112 125.401C326.907 123.183 323.678 120.009 321.383 116.821C320.34 115.372 319.355 114.34 319.194 114.527C319.032 114.714 318.048 115.993 317.007 117.369C314.779 120.312 310.942 124.042 308.445 125.692C307.47 126.335 306.673 126.905 306.673 126.958C306.673 127.011 307.959 128.01 309.532 129.179C312.816 131.622 316.403 135.358 318.171 138.177C319.2 139.819 319.456 140.017 319.808 139.44C320.037 139.064 321.102 137.583 322.174 136.149Z" fill="url(#paint0_radial_8_74)"/>
<ellipse cx="212" cy="206" rx="3" ry="4" fill="#ECECEC"/>
<path d="M142.166 306.928C138.226 305.667 131.455 302.667 127.117 300.262C118.069 295.244 100.032 276.448 101.579 273.649C102.149 272.618 101.802 271.994 100.808 272.263C98.414 272.911 89.7741 255.676 86.3326 243.387L83.5914 233.598L74.6196 234.202C65.1073 234.843 61 232.781 61 227.367C61 224.166 65.3394 221.594 75.3233 218.879L80.8936 217.364L81.9385 202.146C82.5134 193.777 84.2245 181.812 85.7413 175.559C90.4172 156.279 90.2422 155.598 80.0361 153.343C65.6038 150.155 61.7956 147.398 61.7956 140.139C61.7956 134.852 62.6202 133.453 67.3659 130.688C72.0528 127.956 75.488 127.585 89.0247 128.349L105.113 129.256L114.605 118.934C120.977 112.005 128.728 106.045 138.182 100.806C152.009 93.1431 152.561 93 168.304 93C182.949 93 185.237 93.4784 194.684 98.5151C206.124 104.614 222.306 118.122 221.001 120.483C220.542 121.313 221.204 122.438 222.473 122.982C225.738 124.383 231.289 137.26 231.289 143.433C231.289 146.289 230.27 149.571 229.025 150.726C227.78 151.882 225.839 156.851 224.712 161.769C223.045 169.041 221.272 171.929 215.213 177.238C211.116 180.828 206.432 184.686 204.805 185.811C202.06 187.708 202.337 188.422 208.646 195.707C212.386 200.026 214.952 204.111 214.349 204.786C213.745 205.46 214.083 206.012 215.099 206.012C217.518 206.012 226.711 220.234 225.596 222.252C225.122 223.109 225.415 223.81 226.247 223.81C227.946 223.81 233.438 238.016 232.252 239.342C231.834 239.81 232.134 242.085 232.921 244.396C233.777 246.914 233.764 249.005 232.889 249.61C232.085 250.165 231.82 251.762 232.299 253.159C235.422 262.258 216.181 287.537 197.823 298.454C192.158 301.824 187.165 304.522 186.727 304.452C186.29 304.382 184.141 305.12 181.953 306.093C175.512 308.958 150.166 309.49 142.166 306.928ZM121.476 290.549C121.476 290.06 121.118 289.659 120.681 289.659C120.243 289.659 119.885 290.06 119.885 290.549C119.885 291.039 120.243 291.439 120.681 291.439C121.118 291.439 121.476 291.039 121.476 290.549ZM193.94 281.741C196.975 280.323 199.459 279.658 199.459 280.264C199.459 280.87 202.973 277.394 207.268 272.54C213.499 265.499 215.288 262.11 216.118 255.775C217.459 245.54 214.185 235.129 206.018 223.658C199.939 215.12 184.438 200.729 181.2 200.616C180.301 200.585 167.933 204.79 153.716 209.96L127.867 219.36L128.252 227.814C128.464 232.463 129.06 236.267 129.577 236.267C130.093 236.267 131.515 239.671 132.736 243.831C135.157 252.075 136.369 254.066 146.701 266.769C159.564 282.584 178.972 288.735 193.94 281.741ZM212.191 272.752C212.191 272.262 211.833 271.862 211.395 271.862C210.957 271.862 210.599 272.262 210.599 272.752C210.599 273.241 210.957 273.642 211.395 273.642C211.833 273.642 212.191 273.241 212.191 272.752ZM135.8 258.514C135.8 258.025 135.442 257.624 135.004 257.624C134.566 257.624 134.208 258.025 134.208 258.514C134.208 259.004 134.566 259.404 135.004 259.404C135.442 259.404 135.8 259.004 135.8 258.514ZM75.3233 222.92C75.3233 222.43 74.9652 222.03 74.5276 222.03C74.0901 222.03 73.7319 222.43 73.7319 222.92C73.7319 223.409 74.0901 223.81 74.5276 223.81C74.9652 223.81 75.3233 223.409 75.3233 222.92ZM218.557 215.801C218.557 215.311 218.199 214.911 217.761 214.911C217.323 214.911 216.965 215.311 216.965 215.801C216.965 216.29 217.323 216.691 217.761 216.691C218.199 216.691 218.557 216.29 218.557 215.801ZM215.374 208.682C215.374 208.192 215.016 207.792 214.578 207.792C214.14 207.792 213.782 208.192 213.782 208.682C213.782 209.171 214.14 209.572 214.578 209.572C215.016 209.572 215.374 209.171 215.374 208.682ZM212.191 205.122C212.191 204.633 211.833 204.233 211.395 204.233C210.957 204.233 210.599 204.633 210.599 205.122C210.599 205.612 210.957 206.012 211.395 206.012C211.833 206.012 212.191 205.612 212.191 205.122ZM143.449 194.301C151.059 190.796 157.911 187.252 158.677 186.426C160.29 184.685 138.989 172.198 134.407 172.198C132.047 172.198 130.958 174.142 129.668 180.651C126.194 198.191 125.964 200.673 127.806 200.673C128.8 200.673 135.84 197.805 143.449 194.301ZM150.123 174.867C150.123 174.378 149.765 173.977 149.327 173.977C148.89 173.977 148.532 174.378 148.532 174.867C148.532 175.357 148.89 175.757 149.327 175.757C149.765 175.757 150.123 175.357 150.123 174.867ZM153.306 174.867C153.306 174.378 152.948 173.977 152.51 173.977C152.073 173.977 151.714 174.378 151.714 174.867C151.714 175.357 152.073 175.757 152.51 175.757C152.948 175.757 153.306 175.357 153.306 174.867ZM187.539 170.389C188.089 169.394 189.384 169.122 190.418 169.784C191.452 170.447 191.796 170.367 191.184 169.607C190.572 168.847 193.977 164.667 198.751 160.318C208.786 151.178 212.191 144.849 212.191 135.339C212.191 116.324 189.35 110.207 167.657 123.41C158.899 128.741 144.507 144.32 145.943 146.917C146.476 147.882 150.679 150.849 155.282 153.508C169.391 161.661 174.061 165.3 172.964 167.286C172.343 168.409 172.663 168.669 173.747 167.92C174.755 167.223 177.174 167.901 179.121 169.425C183.213 172.63 186.117 172.963 187.539 170.389ZM146.94 151.731C146.94 151.241 146.582 150.841 146.144 150.841C145.707 150.841 145.349 151.241 145.349 151.731C145.349 152.22 145.707 152.621 146.144 152.621C146.582 152.621 146.94 152.22 146.94 151.731ZM216.965 133.933C216.965 133.444 216.607 133.044 216.17 133.044C215.732 133.044 215.374 133.444 215.374 133.933C215.374 134.423 215.732 134.823 216.17 134.823C216.607 134.823 216.965 134.423 216.965 133.933ZM132.617 107.238C132.617 106.748 132.259 106.348 131.821 106.348C131.383 106.348 131.025 106.748 131.025 107.238C131.025 107.727 131.383 108.128 131.821 108.128C132.259 108.128 132.617 107.727 132.617 107.238ZM142.166 101.899C142.166 101.409 141.808 101.009 141.37 101.009C140.932 101.009 140.574 101.409 140.574 101.899C140.574 102.388 140.932 102.788 141.37 102.788C141.808 102.788 142.166 102.388 142.166 101.899Z" fill="#ECECEC"/>
<g filter="url(#filter0_d_8_74)">
<path d="M125.166 307.928C121.226 306.667 114.455 303.667 110.117 301.262C101.069 296.244 83.0318 277.448 84.5789 274.649C85.149 273.618 84.8023 272.994 83.8084 273.263C81.414 273.911 72.7741 256.676 69.3326 244.387L66.5914 234.598L57.6196 235.202C48.1073 235.843 44 233.781 44 228.367C44 225.166 48.3394 222.594 58.3233 219.879L63.8936 218.364L64.9385 203.146C65.5134 194.777 67.2245 182.812 68.7413 176.559C73.4172 157.279 73.2422 156.598 63.0361 154.343C48.6038 151.155 44.7956 148.398 44.7956 141.139C44.7956 135.852 45.6202 134.453 50.3659 131.688C55.0528 128.956 58.488 128.585 72.0247 129.349L88.1132 130.256L97.6054 119.934C103.977 113.005 111.728 107.045 121.182 101.806C135.009 94.1431 135.561 94 151.304 94C165.949 94 168.237 94.4784 177.684 99.5151C189.124 105.614 205.306 119.122 204.001 121.483C203.542 122.313 204.204 123.438 205.473 123.982C208.738 125.383 214.289 138.26 214.289 144.433C214.289 147.289 213.27 150.571 212.025 151.726C210.78 152.882 208.839 157.851 207.712 162.769C206.045 170.041 204.272 172.929 198.213 178.238C194.116 181.828 189.432 185.686 187.805 186.811C185.06 188.708 185.337 189.422 191.646 196.707C195.386 201.026 197.952 205.111 197.349 205.786C196.745 206.46 197.083 207.012 198.099 207.012C200.518 207.012 209.711 221.234 208.596 223.252C208.122 224.109 208.415 224.81 209.247 224.81C210.946 224.81 216.438 239.016 215.252 240.342C214.834 240.81 215.134 243.085 215.921 245.396C216.777 247.914 216.764 250.005 215.889 250.61C215.085 251.165 214.82 252.762 215.299 254.159C218.422 263.258 199.181 288.537 180.823 299.454C175.158 302.824 170.165 305.522 169.727 305.452C169.29 305.382 167.141 306.12 164.953 307.093C158.512 309.958 133.166 310.49 125.166 307.928ZM104.476 291.549C104.476 291.06 104.118 290.659 103.681 290.659C103.243 290.659 102.885 291.06 102.885 291.549C102.885 292.039 103.243 292.439 103.681 292.439C104.118 292.439 104.476 292.039 104.476 291.549ZM176.94 282.741C179.975 281.323 182.459 280.658 182.459 281.264C182.459 281.87 185.973 278.394 190.268 273.54C196.499 266.499 198.288 263.11 199.118 256.775C200.459 246.54 197.185 236.129 189.018 224.658C182.939 216.12 167.438 201.729 164.2 201.616C163.301 201.585 150.933 205.79 136.716 210.96L110.867 220.36L111.252 228.814C111.464 233.463 112.06 237.267 112.577 237.267C113.093 237.267 114.515 240.671 115.736 244.831C118.157 253.075 119.369 255.066 129.701 267.769C142.564 283.584 161.972 289.735 176.94 282.741ZM195.191 273.752C195.191 273.262 194.833 272.862 194.395 272.862C193.957 272.862 193.599 273.262 193.599 273.752C193.599 274.241 193.957 274.642 194.395 274.642C194.833 274.642 195.191 274.241 195.191 273.752ZM118.8 259.514C118.8 259.025 118.442 258.624 118.004 258.624C117.566 258.624 117.208 259.025 117.208 259.514C117.208 260.004 117.566 260.404 118.004 260.404C118.442 260.404 118.8 260.004 118.8 259.514ZM58.3233 223.92C58.3233 223.43 57.9652 223.03 57.5276 223.03C57.0901 223.03 56.7319 223.43 56.7319 223.92C56.7319 224.409 57.0901 224.81 57.5276 224.81C57.9652 224.81 58.3233 224.409 58.3233 223.92ZM201.557 216.801C201.557 216.311 201.199 215.911 200.761 215.911C200.323 215.911 199.965 216.311 199.965 216.801C199.965 217.29 200.323 217.691 200.761 217.691C201.199 217.691 201.557 217.29 201.557 216.801ZM198.374 209.682C198.374 209.192 198.016 208.792 197.578 208.792C197.14 208.792 196.782 209.192 196.782 209.682C196.782 210.171 197.14 210.572 197.578 210.572C198.016 210.572 198.374 210.171 198.374 209.682ZM195.191 206.122C195.191 205.633 194.833 205.233 194.395 205.233C193.957 205.233 193.599 205.633 193.599 206.122C193.599 206.612 193.957 207.012 194.395 207.012C194.833 207.012 195.191 206.612 195.191 206.122ZM126.449 195.301C134.059 191.796 140.911 188.252 141.677 187.426C143.29 185.685 121.989 173.198 117.407 173.198C115.047 173.198 113.958 175.142 112.668 181.651C109.194 199.191 108.964 201.673 110.806 201.673C111.8 201.673 118.84 198.805 126.449 195.301ZM133.123 175.867C133.123 175.378 132.765 174.977 132.327 174.977C131.89 174.977 131.532 175.378 131.532 175.867C131.532 176.357 131.89 176.757 132.327 176.757C132.765 176.757 133.123 176.357 133.123 175.867ZM136.306 175.867C136.306 175.378 135.948 174.977 135.51 174.977C135.073 174.977 134.714 175.378 134.714 175.867C134.714 176.357 135.073 176.757 135.51 176.757C135.948 176.757 136.306 176.357 136.306 175.867ZM170.539 171.389C171.089 170.394 172.384 170.122 173.418 170.784C174.452 171.447 174.796 171.367 174.184 170.607C173.572 169.847 176.977 165.667 181.751 161.318C191.786 152.178 195.191 145.849 195.191 136.339C195.191 117.324 172.35 111.207 150.657 124.41C141.899 129.741 127.507 145.32 128.943 147.917C129.476 148.882 133.679 151.849 138.282 154.508C152.391 162.661 157.061 166.3 155.964 168.286C155.343 169.409 155.663 169.669 156.747 168.92C157.755 168.223 160.174 168.901 162.121 170.425C166.213 173.63 169.117 173.963 170.539 171.389ZM129.94 152.731C129.94 152.241 129.582 151.841 129.144 151.841C128.707 151.841 128.349 152.241 128.349 152.731C128.349 153.22 128.707 153.621 129.144 153.621C129.582 153.621 129.94 153.22 129.94 152.731ZM199.965 134.933C199.965 134.444 199.607 134.044 199.17 134.044C198.732 134.044 198.374 134.444 198.374 134.933C198.374 135.423 198.732 135.823 199.17 135.823C199.607 135.823 199.965 135.423 199.965 134.933ZM115.617 108.238C115.617 107.748 115.259 107.348 114.821 107.348C114.383 107.348 114.025 107.748 114.025 108.238C114.025 108.727 114.383 109.128 114.821 109.128C115.259 109.128 115.617 108.727 115.617 108.238ZM125.166 102.899C125.166 102.409 124.808 102.009 124.37 102.009C123.932 102.009 123.574 102.409 123.574 102.899C123.574 103.388 123.932 103.788 124.37 103.788C124.808 103.788 125.166 103.388 125.166 102.899Z" fill="#60A7EE"/>
<ellipse cx="97.75" cy="269.25" rx="1.75" ry="2.25" fill="#ECECEC"/>
<ellipse cx="106.75" cy="239.25" rx="1.75" ry="2.25" fill="#ECECEC"/>
<ellipse cx="101.75" cy="192.25" rx="1.75" ry="2.25" fill="#ECECEC"/>
<ellipse cx="76.75" cy="212.25" rx="1.75" ry="2.25" fill="#ECECEC"/>
<ellipse cx="62.75" cy="136.25" rx="1.75" ry="2.25" fill="#ECECEC"/>
<ellipse cx="143.75" cy="110.25" rx="1.75" ry="2.25" fill="#ECECEC"/>
<ellipse cx="134.75" cy="299.25" rx="1.75" ry="2.25" fill="#ECECEC"/>
<ellipse cx="162.75" cy="196.25" rx="1.75" ry="2.25" fill="#ECECEC"/>
<ellipse cx="181.85" cy="199.1" rx="0.85" ry="1.1" fill="#ECECEC"/>
<ellipse cx="209.85" cy="266.1" rx="0.85" ry="1.1" fill="#ECECEC"/>
<ellipse cx="151.85" cy="297.1" rx="0.85" ry="1.1" fill="#ECECEC"/>
<ellipse cx="159.85" cy="291.1" rx="0.85" ry="1.1" fill="#ECECEC"/>
<ellipse cx="129.85" cy="277.1" rx="0.85" ry="1.1" fill="#ECECEC"/>
<ellipse cx="83.85" cy="261.1" rx="0.85" ry="1.1" fill="#ECECEC"/>
<ellipse cx="73.85" cy="189.1" rx="0.85" ry="1.1" fill="#ECECEC"/>
<ellipse cx="72.85" cy="242.1" rx="0.85" ry="1.1" fill="#ECECEC"/>
<ellipse cx="99.85" cy="128.1" rx="0.85" ry="1.1" fill="#ECECEC"/>
<ellipse cx="193.85" cy="153.1" rx="0.85" ry="1.1" fill="#ECECEC"/>
<ellipse cx="169.85" cy="102.1" rx="0.85" ry="1.1" fill="#ECECEC"/>
<ellipse cx="185.85" cy="170.1" rx="0.85" ry="1.1" fill="#ECECEC"/>
<ellipse cx="140.85" cy="203.1" rx="0.85" ry="1.1" fill="#ECECEC"/>
<ellipse cx="135.85" cy="205.1" rx="0.85" ry="1.1" fill="#ECECEC"/>
<ellipse cx="84.5" cy="162.5" rx="2.5" ry="3.5" fill="#ECECEC"/>
<ellipse cx="102" cy="226.5" rx="2" ry="2.5" fill="#ECECEC"/>
<ellipse cx="120" cy="137.5" rx="2" ry="2.5" fill="#ECECEC"/>
</g>
<defs>
<filter id="filter0_d_8_74" x="40" y="92" width="180.554" height="223.578" filterUnits="userSpaceOnUse" color-interpolation-filters="sRGB">
<feFlood flood-opacity="0" result="BackgroundImageFix"/>
<feColorMatrix in="SourceAlpha" type="matrix" values="0 0 0 0 0 0 0 0 0 0 0 0 0 0 0 0 0 0 127 0" result="hardAlpha"/>
<feOffset dy="2"/>
<feGaussianBlur stdDeviation="2"/>
<feComposite in2="hardAlpha" operator="out"/>
<feColorMatrix type="matrix" values="0 0 0 0 0 0 0 0 0 0 0 0 0 0 0 0 0 0 0.25 0"/>
<feBlend mode="normal" in2="BackgroundImageFix" result="effect1_dropShadow_8_74"/>
<feBlend mode="normal" in="SourceGraphic" in2="effect1_dropShadow_8_74" result="shape"/>
</filter>
<radialGradient id="paint0_radial_8_74" cx="0" cy="0" r="1" gradientUnits="userSpaceOnUse" gradientTransform="translate(271.217 191) rotate(90) scale(100 84.217)">
<stop stop-color="#99CAFA"/>
<stop offset="1" stop-color="#60A7EE"/>
</radialGradient>
</defs>
</svg>
